
<svg version="1.0" xmlns="http://www.w3.org/2000/svg"
  viewBox="0 0 1000.000000 1000.000000"
 preserveAspectRatio="xMidYMid meet">
 <style>
        path { fill: #000; }
        @media (prefers-color-scheme: dark) {
            path { fill: #FFF; }
        }
    </style>

<g transform="translate(0.000000,1000.000000) scale(0.100000,-0.100000)"
fill="#000000" stroke="none">
<path d="M5665 8795 c-62 -62 2 -162 85 -134 36 13 50 36 50 83 0 68 -86 101
-135 51z"/>
<path d="M5501 8489 c-88 -264 -241 -549 -419 -779 -91 -117 -296 -326 -417
-423 -371 -299 -815 -492 -1300 -564 -181 -26 -543 -24 -730 5 -119 19 -285
55 -356 77 -17 6 -19 1 -19 -63 0 -86 -20 -156 -65 -222 -19 -29 -35 -57 -35
-64 0 -7 26 -20 58 -30 178 -56 451 -181 633 -292 330 -199 639 -484 871 -804
78 -108 168 -251 168 -267 0 -5 -13 -17 -30 -26 -115 -68 -450 -325 -640 -491
-212 -185 -666 -656 -711 -738 -8 -14 -1 -20 35 -36 54 -25 121 -84 157 -140
l27 -42 113 132 c316 370 724 738 1106 999 l87 59 14 -26 c24 -47 89 -225 121
-335 41 -140 76 -306 97 -459 25 -175 25 -585 0 -760 -58 -420 -192 -802 -404
-1158 -30 -51 -53 -94 -51 -97 3 -2 25 1 49 6 117 27 252 -13 344 -102 33 -33
63 -59 66 -59 3 0 16 19 29 43 48 83 192 294 274 399 571 734 1358 1248 2248
1467 336 83 587 114 939 115 140 1 306 -2 368 -7 l113 -7 -19 37 c-31 62 -45
139 -39 214 6 68 6 69 -21 76 -15 4 -171 7 -347 7 -341 0 -472 -10 -765 -60
-514 -87 -1038 -280 -1492 -551 -334 -199 -574 -388 -871 -684 -120 -120 -216
-210 -213 -201 129 417 167 924 105 1392 -36 275 -138 635 -252 891 l-16 35
127 70 c466 255 986 456 1457 564 50 11 100 22 113 25 l23 6 -22 30 c-32 45
-59 142 -59 210 l0 59 -27 -6 c-560 -126 -1104 -329 -1581 -588 l-170 -93 -96
146 c-246 377 -568 706 -920 940 l-99 66 94 7 c391 30 662 90 969 214 739 300
1330 897 1623 1639 50 124 130 375 122 383 -1 1 -22 -2 -46 -7 -67 -16 -158
-12 -215 7 l-51 18 -52 -157z"/>
<path d="M2094 6740 c-12 -5 -29 -19 -38 -32 -54 -77 42 -167 117 -108 51 41
38 117 -24 139 -18 6 -32 11 -33 10 -1 0 -11 -4 -22 -9z"/>
<path d="M4154 5486 c-56 -47 -20 -146 52 -146 34 0 84 51 84 85 0 34 -50 85
-84 85 -14 0 -37 -11 -52 -24z"/>
<path d="M3913 4594 c-21 -21 -24 -32 -19 -62 7 -44 37 -72 78 -72 41 0 63 14
78 50 10 24 10 36 0 60 -23 57 -92 69 -137 24z"/>
<path d="M8302 4053 c-16 -6 -42 -56 -42 -82 0 -36 43 -75 83 -75 83 0 114
100 48 151 -16 12 -65 16 -89 6z"/>
<path d="M3970 1887 c-77 -40 -53 -158 33 -157 101 1 116 141 17 164 -14 4
-36 0 -50 -7z"/>
</g>
</svg>
